<svg width="28" height="3" viewBox="0 0 28 3" fill="none" xmlns="http://www.w3.org/2000/svg">
<path fill-rule="evenodd" clip-rule="evenodd" d="M1.4 1.22392e-07L2.62268e-07 0L0 3L1.4 3L1.4 1.22392e-07ZM7 6.11959e-07L4.2 3.67176e-07L4.2 3L7 3L7 6.11959e-07ZM12.6 1.10153e-06L9.8 8.56743e-07L9.8 3L12.6 3L12.6 1.10153e-06ZM18.2 1.59109e-06L15.4 1.34631e-06L15.4 3L18.2 3L18.2 1.59109e-06ZM23.8 2.08066e-06L21 1.83588e-06L21 3L23.8 3L23.8 2.08066e-06ZM28 2.44784e-06L26.6 2.32545e-06L26.6 3L28 3L28 2.44784e-06Z" fill="#141414"/>
</svg>
