<svg width="69" height="50" viewBox="0 0 69 50" fill="none" xmlns="http://www.w3.org/2000/svg">
<path fill-rule="evenodd" clip-rule="evenodd" d="M0.5 0V1.50649H3.5V0H0.5ZM0.5 4.51948V7.53247H3.5V4.51948H0.5ZM0.5 10.5455V13.5584H3.5V10.5455H0.5ZM0.5 16.5714V19.5844H3.5V16.5714H0.5ZM0.5 22.5974V25.6104H3.5V22.5974H0.5ZM0.5 28.6234V31.6364H3.5V28.6234H0.5ZM0.5 34.6494V37.6623H3.5V34.6494H0.5ZM0.5 40.6753V42.1818C0.5 42.6687 0.547745 43.1458 0.639259 43.6084L3.58222 43.0262C3.52843 42.7543 3.5 42.4721 3.5 42.1818V40.6753H0.5ZM1.73353 46.249C2.26738 47.0464 2.95361 47.7326 3.75103 48.2665L5.41999 45.7736C4.94843 45.4579 4.54213 45.0516 4.22643 44.58L1.73353 46.249ZM6.39159 49.3607C6.85419 49.4523 7.33135 49.5 7.81818 49.5H9.34774V46.5H7.81818C7.52787 46.5 7.24569 46.4716 6.9738 46.4178L6.39159 49.3607ZM67.4705 49.5H69V46.5H67.4705V49.5ZM61.3523 49.5H64.4114V46.5H61.3523V49.5ZM55.2341 49.5H58.2932V46.5H55.2341V49.5ZM49.1159 49.5H52.175V46.5H49.1159V49.5ZM42.9977 49.5H46.0568V46.5H42.9977V49.5ZM36.8795 49.5H39.9386V46.5H36.8795V49.5ZM30.7614 49.5H33.8205V46.5H30.7614V49.5ZM24.6432 49.5H27.7023V46.5H24.6432V49.5ZM18.525 49.5H21.5841V46.5H18.525V49.5ZM12.4068 49.5H15.4659V46.5H12.4068V49.5Z" fill="#141414"/>
</svg>
