<svg width="108" height="122" viewBox="0 0 108 122" fill="none" xmlns="http://www.w3.org/2000/svg">
<path fill-rule="evenodd" clip-rule="evenodd" d="M0.5 0V1.50242H3.5V0H0.5ZM0.5 4.5072V7.51199H3.5V4.5072H0.5ZM0.5 10.5168V13.5216H3.5V10.5168H0.5ZM0.5 16.5263V19.5311H3.5V16.5263H0.5ZM0.5 22.5359V25.5407H3.5V22.5359H0.5ZM0.5 28.5455V31.5503H3.5V28.5455H0.5ZM0.5 34.555V37.5598H3.5V34.555H0.5ZM0.5 40.5646V43.5694H3.5V40.5646H0.5ZM0.5 46.5742V49.579H3.5V46.5742H0.5ZM0.5 52.5837V55.5885H3.5V52.5837H0.5ZM0.5 58.5933V61.5981H3.5V58.5933H0.5ZM0.5 64.6029V67.6077H3.5V64.6029H0.5ZM0.5 70.6124V73.6172H3.5V70.6124H0.5ZM0.5 76.622V79.6268H3.5V76.622H0.5ZM0.5 82.6316V85.6364H3.5V82.6316H0.5ZM0.5 88.6412V91.6459H3.5V88.6412H0.5ZM0.5 94.6507V97.6555H3.5V94.6507H0.5ZM0.5 100.66V103.665H3.5V100.66H0.5ZM0.5 106.67V109.675H3.5V106.67H0.5ZM0.5 112.679V114.182C0.5 114.669 0.547745 115.146 0.639259 115.608L3.58222 115.026C3.52843 114.754 3.5 114.472 3.5 114.182V112.679H0.5ZM1.73353 118.249C2.26738 119.046 2.95362 119.733 3.75103 120.266L5.41999 117.774C4.94844 117.458 4.54213 117.052 4.22643 116.58L1.73353 118.249ZM6.39159 121.361C6.85419 121.452 7.33135 121.5 7.81818 121.5H9.29141V118.5H7.81818C7.52787 118.5 7.24569 118.472 6.9738 118.418L6.39159 121.361ZM106.527 121.5H108V118.5H106.527V121.5ZM100.634 121.5H103.58V118.5H100.634V121.5ZM94.7406 121.5H97.6872V118.5H94.7406V121.5ZM88.8476 121.5H91.7941V118.5H88.8476V121.5ZM82.9545 121.5H85.9011V118.5H82.9545V121.5ZM77.0615 121.5H80.008V118.5H77.0615V121.5ZM71.1684 121.5H74.115V118.5H71.1684V121.5ZM65.2754 121.5H68.2219V118.5H65.2754V121.5ZM59.3823 121.5H62.3289V118.5H59.3823V121.5ZM53.4893 121.5H56.4358V118.5H53.4893V121.5ZM47.5962 121.5H50.5428V118.5H47.5962V121.5ZM41.7032 121.5H44.6497V118.5H41.7032V121.5ZM35.8101 121.5H38.7567V118.5H35.8101V121.5ZM29.9171 121.5H32.8636V118.5H29.9171V121.5ZM24.024 121.5H26.9706V118.5H24.024V121.5ZM18.131 121.5H21.0775V118.5H18.131V121.5ZM12.2379 121.5H15.1845V118.5H12.2379V121.5Z" fill="#141414"/>
</svg>
