<svg width="147" height="193" viewBox="0 0 147 193" fill="none" xmlns="http://www.w3.org/2000/svg">
<path fill-rule="evenodd" clip-rule="evenodd" d="M0.5 0V1.49349H3.5V0H0.5ZM0.5 4.48029V7.46709H3.5V4.48029H0.5ZM0.5 10.4539V13.4407H3.5V10.4539H0.5ZM0.5 16.4275V19.4143H3.5V16.4275H0.5ZM0.5 22.4011V25.3879H3.5V22.4011H0.5ZM0.5 28.3747V31.3615H3.5V28.3747H0.5ZM0.5 34.3483V37.3351H3.5V34.3483H0.5ZM0.5 40.3219V43.3087H3.5V40.3219H0.5ZM0.5 46.2955V49.2823H3.5V46.2955H0.5ZM0.5 52.2691V55.2559H3.5V52.2691H0.5ZM0.5 58.2427V61.2295H3.5V58.2427H0.5ZM0.5 64.2163V67.2031H3.5V64.2163H0.5ZM0.5 70.1899V73.1767H3.5V70.1899H0.5ZM0.5 76.1635V79.1503H3.5V76.1635H0.5ZM0.5 82.1371V85.1239H3.5V82.1371H0.5ZM0.5 88.1107V91.0975H3.5V88.1107H0.5ZM0.5 94.0843V97.0711H3.5V94.0843H0.5ZM0.5 100.058V103.045H3.5V100.058H0.5ZM0.5 106.032V109.018H3.5V106.032H0.5ZM0.5 112.005V114.992H3.5V112.005H0.5ZM0.5 117.979V120.966H3.5V117.979H0.5ZM0.5 123.952V126.939H3.5V123.952H0.5ZM0.5 129.926V132.913H3.5V129.926H0.5ZM0.5 135.9V138.886H3.5V135.9H0.5ZM0.5 141.873V144.86H3.5V141.873H0.5ZM0.5 147.847V150.834H3.5V147.847H0.5ZM0.5 153.82V156.807H3.5V153.82H0.5ZM0.5 159.794V162.781H3.5V159.794H0.5ZM0.5 165.768V168.754H3.5V165.768H0.5ZM0.5 171.741V174.728H3.5V171.741H0.5ZM0.5 177.715V180.702H3.5V177.715H0.5ZM0.5 183.688V185.182C0.5 185.669 0.547745 186.146 0.639267 186.608L3.58223 186.026C3.52844 185.754 3.5 185.472 3.5 185.182V183.688H0.5ZM1.73354 189.249C2.26738 190.046 2.95361 190.733 3.75102 191.266L5.41998 188.774C4.94844 188.458 4.54213 188.052 4.22644 187.58L1.73354 189.249ZM6.39159 192.361C6.85419 192.452 7.33136 192.5 7.81818 192.5H9.33109V189.5H7.81818C7.52786 189.5 7.24568 189.472 6.9738 189.418L6.39159 192.361ZM145.487 192.5H147V189.5H145.487V192.5ZM139.436 192.5H142.461V189.5H139.436V192.5ZM133.384 192.5H136.41V189.5H133.384V192.5ZM127.333 192.5H130.359V189.5H127.333V192.5ZM121.282 192.5H124.307V189.5H121.282V192.5ZM115.23 192.5H118.256V189.5H115.23V192.5ZM109.179 192.5H112.205V189.5H109.179V192.5ZM103.127 192.5H106.153V189.5H103.127V192.5ZM97.0761 192.5H100.102V189.5H97.0761V192.5ZM91.0247 192.5H94.0504V189.5H91.0247V192.5ZM84.9733 192.5H87.999V189.5H84.9733V192.5ZM78.9219 192.5H81.9476V189.5H78.9219V192.5ZM72.8706 192.5H75.8963V189.5H72.8706V192.5ZM66.8192 192.5H69.8449V189.5H66.8192V192.5ZM60.7678 192.5H63.7935V189.5H60.7678V192.5ZM54.7164 192.5H57.7421V189.5H54.7164V192.5ZM48.6651 192.5H51.6907V189.5H48.6651V192.5ZM42.6137 192.5H45.6394V189.5H42.6137V192.5ZM36.5623 192.5H39.588V189.5H36.5623V192.5ZM30.5109 192.5H33.5366V189.5H30.5109V192.5ZM24.4596 192.5H27.4852V189.5H24.4596V192.5ZM18.4082 192.5H21.4339V189.5H18.4082V192.5ZM12.3568 192.5H15.3825V189.5H12.3568V192.5Z" fill="#141414"/>
</svg>
