<svg width="17" height="28" viewBox="0 0 17 28" fill="none" xmlns="http://www.w3.org/2000/svg">
<path d="M0.673393 12.4558L12.5132 0.619668C12.7077 0.423316 12.939 0.267468 13.1939 0.161113C13.4489 0.0547575 13.7223 0 13.9984 0C14.2746 0 14.548 0.0547575 14.8029 0.161113C15.0578 0.267468 15.2892 0.423316 15.4836 0.619668C15.8732 1.01217 16.0919 1.54313 16.0919 2.09657C16.0919 2.65001 15.8732 3.18097 15.4836 3.57348L5.12901 14.048L15.4836 24.4177C15.8732 24.8102 16.0919 25.3412 16.0919 25.8946C16.0919 26.4481 15.8732 26.979 15.4836 27.3715C15.2899 27.5695 15.0589 27.7269 14.8039 27.8348C14.549 27.9427 14.2752 27.9988 13.9984 28C13.7217 27.9988 13.4479 27.9427 13.1929 27.8348C12.938 27.7269 12.7069 27.5695 12.5132 27.3715L0.673393 15.5354C0.461061 15.3392 0.291604 15.1011 0.175701 14.8361C0.0597973 14.5711 -3.8147e-05 14.2849 -3.8147e-05 13.9956C-3.8147e-05 13.7063 0.0597973 13.4201 0.175701 13.1551C0.291604 12.8901 0.461061 12.652 0.673393 12.4558Z" fill="#141414"/>
</svg>
