<svg width="28" height="28" viewBox="0 0 28 28" fill="none" xmlns="http://www.w3.org/2000/svg">
<path d="M13.9999 0C10.6756 0.000139164 7.45983 1.19442 4.92795 3.36915C2.39608 5.54389 0.713335 8.55715 0.180823 11.8698C-0.351688 15.1824 0.300781 18.5783 2.02148 21.4497C3.74219 24.3211 6.41883 26.4808 9.5725 27.5422C10.2725 27.6659 10.535 27.2419 10.535 26.8708C10.535 26.5352 10.5175 25.4222 10.5175 24.2385C6.99999 24.8922 6.08999 23.3729 5.81 22.5779C5.49931 21.8047 5.00679 21.1195 4.37501 20.5816C3.88501 20.3166 3.18502 19.6629 4.35749 19.6453C4.80519 19.6943 5.23458 19.8516 5.60928 20.1037C5.98398 20.3559 6.29294 20.6955 6.50999 21.0939C6.70147 21.4411 6.95894 21.7468 7.26765 21.9935C7.57636 22.2401 7.93025 22.4228 8.30902 22.5311C8.6878 22.6394 9.08403 22.6712 9.475 22.6247C9.86597 22.5781 10.244 22.4542 10.5874 22.2599C10.648 21.5414 10.9652 20.8696 11.48 20.3696C8.36498 20.0163 5.11 18.7972 5.11 13.3913C5.09033 11.9867 5.60376 10.6277 6.54499 9.59299C6.11699 8.37219 6.16707 7.03245 6.68499 5.84768C6.68499 5.84768 7.85744 5.47667 10.535 7.29634C12.8258 6.6603 15.2441 6.6603 17.5349 7.29634C20.2124 5.45901 21.3849 5.84768 21.3849 5.84768C21.9029 7.03243 21.953 8.3722 21.5249 9.59299C22.469 10.6259 22.9828 11.9861 22.9599 13.3913C22.9599 18.8149 19.6874 20.0163 16.5724 20.3696C16.9065 20.7115 17.1638 21.1219 17.3269 21.5731C17.49 22.0242 17.5549 22.5055 17.5174 22.9843C17.5174 24.8746 17.4999 26.3939 17.4999 26.8709C17.4999 27.2419 17.7624 27.6836 18.4624 27.5422C21.6105 26.4722 24.2795 24.3075 25.9928 21.4346C27.7062 18.5617 28.3525 15.1676 27.8163 11.8581C27.2801 8.54871 25.5963 5.53935 23.0655 3.36726C20.5348 1.19518 17.3217 0.00174533 13.9999 0Z" fill="#141414"/>
</svg>
