<svg width="28" height="28" viewBox="0 0 28 28" fill="none" xmlns="http://www.w3.org/2000/svg">
<path d="M14.7614 14.7614C14.5583 14.9576 14.2862 15.0661 14.0039 15.0637C13.7215 15.0612 13.4514 14.9479 13.2517 14.7483C13.0521 14.5486 12.9388 14.2785 12.9364 13.9961C12.9339 13.7138 13.0425 13.4417 13.2386 13.2386L19.7002 6.77707C19.7995 6.67422 19.9183 6.59217 20.0497 6.53573C20.1811 6.47929 20.3224 6.44958 20.4654 6.44834C20.6084 6.4471 20.7502 6.47435 20.8826 6.5285C21.0149 6.58264 21.1352 6.66261 21.2363 6.76373C21.3374 6.86484 21.4174 6.98508 21.4715 7.11743C21.5257 7.24978 21.5529 7.39159 21.5517 7.53458C21.5504 7.67758 21.5207 7.81889 21.4643 7.95028C21.4078 8.08167 21.3258 8.2005 21.2229 8.29984L14.7614 14.7614Z" fill="#141414"/>
<path d="M19.3846 19.3846V15.6154C19.3846 15.3298 19.4981 15.0558 19.7 14.8539C19.902 14.6519 20.1759 14.5385 20.4615 14.5385C20.7472 14.5385 21.0211 14.6519 21.223 14.8539C21.425 15.0558 21.5385 15.3298 21.5385 15.6154V20.4615C21.5385 20.7472 21.425 21.0211 21.223 21.223C21.0211 21.425 20.7472 21.5385 20.4615 21.5385H7.53846C7.25284 21.5385 6.97892 21.425 6.77696 21.223C6.575 21.0211 6.46154 20.7472 6.46154 20.4615V7.53846C6.46154 7.25284 6.575 6.97892 6.77696 6.77696C6.97892 6.575 7.25284 6.46154 7.53846 6.46154H12.3846C12.6702 6.46154 12.9442 6.575 13.1461 6.77696C13.3481 6.97892 13.4615 7.25284 13.4615 7.53846C13.4615 7.82408 13.3481 8.098 13.1461 8.29996C12.9442 8.50192 12.6702 8.61538 12.3846 8.61538H8.61538V19.3846H19.3846ZM21.5385 11.8462C21.5385 12.1318 21.425 12.4057 21.223 12.6077C21.0211 12.8096 20.7472 12.9231 20.4615 12.9231C20.1759 12.9231 19.902 12.8096 19.7 12.6077C19.4981 12.4057 19.3846 12.1318 19.3846 11.8462V7.53846C19.3846 7.25284 19.4982 6.97904 19.7002 6.77707C19.9021 6.57511 20.1759 6.46154 20.4615 6.46154C20.7472 6.46154 21.0211 6.575 21.223 6.77696C21.425 6.97892 21.5385 7.25284 21.5385 7.53846V11.8462Z" fill="#141414"/>
<path d="M16.1539 8.61538C15.8682 8.61538 15.5943 8.50192 15.3924 8.29996C15.1904 8.098 15.0769 7.82408 15.0769 7.53846C15.0769 7.25284 15.1904 6.97892 15.3924 6.77696C15.5943 6.575 15.8682 6.46154 16.1539 6.46154H20.4615C20.7472 6.46154 21.0211 6.575 21.223 6.77696C21.425 6.97892 21.5385 7.25284 21.5385 7.53846C21.5385 7.82408 21.4249 8.09788 21.2229 8.29984C21.021 8.50181 20.7472 8.61538 20.4615 8.61538H16.1539Z" fill="#141414"/>
<path fill-rule="evenodd" clip-rule="evenodd" d="M14 25.8462C20.5423 25.8462 25.8462 20.5423 25.8462 14C25.8462 7.45769 20.5423 2.15385 14 2.15385C7.45769 2.15385 2.15385 7.45769 2.15385 14C2.15385 20.5423 7.45769 25.8462 14 25.8462ZM14 28C21.7323 28 28 21.7323 28 14C28 6.26769 21.7323 0 14 0C6.26769 0 0 6.26769 0 14C0 21.7323 6.26769 28 14 28Z" fill="#141414"/>
</svg>
