<svg width="28" height="28" viewBox="0 0 28 28" fill="none" xmlns="http://www.w3.org/2000/svg">
<path fill-rule="evenodd" clip-rule="evenodd" d="M14 25.8462C20.5423 25.8462 25.8462 20.5423 25.8462 14C25.8462 7.45769 20.5423 2.15385 14 2.15385C7.45769 2.15385 2.15385 7.45769 2.15385 14C2.15385 20.5423 7.45769 25.8462 14 25.8462ZM14 28C21.7323 28 28 21.7323 28 14C28 6.26769 21.7323 0 14 0C6.26769 0 0 6.26769 0 14C0 21.7323 6.26769 28 14 28Z" fill="#141414"/>
<path d="M15.1352 14.0192L9.03899 19.8524C9.23392 20.5026 9.85622 21 10.5959 21C10.907 21 11.1795 20.9234 11.4131 20.7705L18.2246 16.9835L15.1352 14.0192ZM15.1352 14.0192L18.1856 10.9782M15.1352 14.0192L18.2242 16.9835L21.1438 15.3772C21.6499 15.1093 22 14.574 22 14C21.961 13.426 21.6105 12.8907 21.1044 12.6228L18.1856 10.9782M15.1352 14.0192L9.03899 19.8907C9 19.7378 9 19.6228 9 19.4699V8.56837C9 8.41547 9 8.26221 9.03899 8.14763M15.1352 14.0192L9.03899 8.14763M18.1856 10.9782L11.4521 7.22953C11.2189 7.07663 10.9078 7 10.5959 7C9.85622 7 9.19456 7.49737 9.03899 8.14763" stroke="black" stroke-width="2" stroke-linecap="round" stroke-linejoin="round"/>
</svg>
