<svg width="28" height="28" viewBox="0 0 28 28" fill="none" xmlns="http://www.w3.org/2000/svg">
<path fill-rule="evenodd" clip-rule="evenodd" d="M0.621289 0.621302C1.44967 -0.207083 2.79275 -0.207083 3.62114 0.621302L27.3787 24.3789C28.2071 25.2073 28.2071 26.5503 27.3787 27.3787C26.5503 28.2071 25.2072 28.2071 24.3789 27.3787L0.621289 3.62115C-0.207096 2.79276 -0.207096 1.44969 0.621289 0.621302Z" fill="#141414"/>
<path fill-rule="evenodd" clip-rule="evenodd" d="M0.621289 27.3787C-0.207096 26.5503 -0.207096 25.2073 0.621289 24.3789L24.3789 0.621288C25.2072 -0.207096 26.5503 -0.207097 27.3787 0.621288C28.2071 1.44967 28.2071 2.79275 27.3787 3.62114L3.62114 27.3787C2.79275 28.2071 1.44967 28.2071 0.621289 27.3787Z" fill="#141414"/>
</svg>
