<svg width="28" height="28" viewBox="0 0 28 28" fill="none" xmlns="http://www.w3.org/2000/svg">
<path fill-rule="evenodd" clip-rule="evenodd" d="M0 2.12121C0 0.949699 0.949699 0 2.12121 0H25.8788C27.0503 0 28 0.949699 28 2.12121C28 3.29273 27.0503 4.24242 25.8788 4.24242H2.12121C0.949699 4.24242 0 3.29273 0 2.12121Z" fill="#141414"/>
<path fill-rule="evenodd" clip-rule="evenodd" d="M0 14C0 12.8285 0.949699 11.8788 2.12121 11.8788H25.8788C27.0503 11.8788 28 12.8285 28 14C28 15.1715 27.0503 16.1212 25.8788 16.1212H2.12121C0.949699 16.1212 0 15.1715 0 14Z" fill="#141414"/>
<path fill-rule="evenodd" clip-rule="evenodd" d="M0 25.8788C0 24.7073 0.949699 23.7576 2.12121 23.7576H25.8788C27.0503 23.7576 28 24.7073 28 25.8788C28 27.0503 27.0503 28 25.8788 28H2.12121C0.949699 28 0 27.0503 0 25.8788Z" fill="#141414"/>
</svg>
