<svg width="40" height="29" viewBox="0 0 40 29" fill="none" xmlns="http://www.w3.org/2000/svg">
<path fill-rule="evenodd" clip-rule="evenodd" d="M0 2.43902C0 1.09199 1.09199 0 2.43902 0H37.561C38.908 0 40 1.09199 40 2.43902C40 3.78606 38.908 4.87805 37.561 4.87805H2.43902C1.09199 4.87805 0 3.78606 0 2.43902ZM0 14.1463C0 12.7993 1.09199 11.7073 2.43902 11.7073H37.561C38.908 11.7073 40 12.7993 40 14.1463C40 15.4934 38.908 16.5854 37.561 16.5854H2.43902C1.09199 16.5854 0 15.4934 0 14.1463ZM0 25.8537C0 24.5066 1.09199 23.4146 2.43902 23.4146H37.561C38.908 23.4146 40 24.5066 40 25.8537C40 27.2007 38.908 28.2927 37.561 28.2927H2.43902C1.09199 28.2927 0 27.2007 0 25.8537Z" fill="#141414"/>
</svg>
