<svg width="37" height="40" viewBox="0 0 37 40" fill="none" xmlns="http://www.w3.org/2000/svg">
<path id="Resume" d="M14.8054 12H26.8054C27.3359 12 27.8446 11.7893 28.2196 11.4142C28.5947 11.0391 28.8054 10.5304 28.8054 10C28.8054 9.46957 28.5947 8.96086 28.2196 8.58579C27.8446 8.21071 27.3359 8 26.8054 8H14.8054C14.275 8 13.7663 8.21071 13.3912 8.58579C13.0161 8.96086 12.8054 9.46957 12.8054 10C12.8054 10.5304 13.0161 11.0391 13.3912 11.4142C13.7663 11.7893 14.275 12 14.8054 12ZM10.8054 20H26.8054C27.3359 20 27.8446 19.7893 28.2196 19.4142C28.5947 19.0391 28.8054 18.5304 28.8054 18C28.8054 17.4696 28.5947 16.9609 28.2196 16.5858C27.8446 16.2107 27.3359 16 26.8054 16H10.8054C10.275 16 9.76628 16.2107 9.39121 16.5858C9.01613 16.9609 8.80542 17.4696 8.80542 18C8.80542 18.5304 9.01613 19.0391 9.39121 19.4142C9.76628 19.7893 10.275 20 10.8054 20ZM10.8054 28H26.8054C27.3359 28 27.8446 27.7893 28.2196 27.4142C28.5947 27.0391 28.8054 26.5304 28.8054 26C28.8054 25.4696 28.5947 24.9609 28.2196 24.5858C27.8446 24.2107 27.3359 24 26.8054 24H10.8054C10.275 24 9.76628 24.2107 9.39121 24.5858C9.01613 24.9609 8.80542 25.4696 8.80542 26C8.80542 26.5304 9.01613 27.0391 9.39121 27.4142C9.76628 27.7893 10.275 28 10.8054 28ZM34.8054 0H2.80542C2.27499 0 1.76628 0.210714 1.39121 0.585786C1.01613 0.960859 0.80542 1.46957 0.80542 2V38C0.80542 38.3714 0.908849 38.7355 1.10412 39.0515C1.29939 39.3674 1.57878 39.6227 1.91099 39.7888C2.2432 39.955 2.61511 40.0253 2.98503 39.9919C3.35495 39.9586 3.70828 39.8228 4.00542 39.6L8.14542 36.5L12.2654 39.6C12.6116 39.8596 13.0327 40 13.4654 40C13.8982 40 14.3192 39.8596 14.6654 39.6L18.8054 36.5L22.9454 39.6C23.2916 39.8596 23.7127 40 24.1454 40C24.5782 40 24.9992 39.8596 25.3454 39.6L29.4654 36.5L33.6054 39.6C33.904 39.8225 34.2588 39.9573 34.6298 39.9891C35.0008 40.0209 35.3733 39.9485 35.7054 39.78C36.0353 39.6138 36.3126 39.3595 36.5068 39.0453C36.7009 38.7311 36.8043 38.3693 36.8054 38V2C36.8054 1.46957 36.5947 0.960859 36.2196 0.585786C35.8446 0.210714 35.3359 0 34.8054 0ZM32.8054 34L30.6654 32.4C30.3192 32.1404 29.8982 32 29.4654 32C29.0327 32 28.6116 32.1404 28.2654 32.4L24.1454 35.5L20.0054 32.4C19.6592 32.1404 19.2382 32 18.8054 32C18.3727 32 17.9516 32.1404 17.6054 32.4L13.4654 35.5L9.34542 32.4C8.99923 32.1404 8.57816 32 8.14542 32C7.71268 32 7.29161 32.1404 6.94542 32.4L4.80542 34V4H32.8054V34Z" fill="#141414"/>
</svg>
