<svg width="44" height="40" viewBox="0 0 44 40" fill="none" xmlns="http://www.w3.org/2000/svg">
<path id="Telegram" d="M42.3429 0.942935C41.7761 0.471413 41.0921 0.162385 40.3636 0.0487368C39.6351 -0.0649113 38.8895 0.0210733 38.206 0.29754L2.53147 14.7007C1.76855 15.0146 1.11912 15.5531 0.6694 16.2447C0.219676 16.9363 -0.00908352 17.7483 0.0134857 18.573C0.0360549 19.3977 0.308885 20.196 0.795764 20.8619C1.28264 21.5279 1.96054 22.0301 2.73949 22.3018L9.95566 24.8115L13.9778 38.1124C14.0325 38.2901 14.1118 38.4592 14.2135 38.6148C14.2289 38.6387 14.2506 38.6565 14.267 38.6797C14.3845 38.8436 14.5265 38.9885 14.6879 39.1092C14.7339 39.1442 14.7778 39.177 14.8269 39.2081C15.0159 39.3335 15.2252 39.4252 15.4455 39.4791L15.469 39.4811L15.4824 39.4868C15.6149 39.5137 15.7497 39.5274 15.8848 39.5276C15.8978 39.5276 15.9094 39.5214 15.9222 39.5211C16.1262 39.5176 16.3284 39.4825 16.5216 39.417C16.5666 39.4017 16.6051 39.3761 16.6487 39.3576C16.7928 39.2979 16.9293 39.2214 17.0554 39.1296C17.1563 39.0445 17.2573 38.9594 17.3584 38.8744L22.7375 32.9355L30.7604 39.1505C31.4667 39.7003 32.3361 39.9993 33.2312 40C34.1692 39.9988 35.0782 39.6752 35.806 39.0834C36.5337 38.4916 37.0358 37.6676 37.2282 36.7496L43.7231 4.86596C43.8703 4.14836 43.8196 3.40425 43.5765 2.71323C43.3334 2.02221 42.9069 1.41029 42.3429 0.942935ZM16.6742 25.4452C16.3981 25.7202 16.2095 26.0705 16.1318 26.4522L15.5156 29.4462L13.9548 24.2843L22.0474 20.0701L16.6742 25.4452ZM33.2002 36.0031L23.7192 28.6586C23.3226 28.3521 22.825 28.2063 22.3257 28.2503C21.8263 28.2942 21.3619 28.5247 21.0248 28.8958L19.3021 30.7973L19.9109 27.8382L34.0108 13.7384C34.3474 13.4023 34.5524 12.9567 34.5888 12.4825C34.6252 12.0082 34.4906 11.5366 34.2093 11.1531C33.928 10.7696 33.5186 10.4995 33.0553 10.3917C32.5921 10.284 32.1055 10.3457 31.6838 10.5657L11.4482 21.1016L4.0342 18.3885L39.8234 4.07081L33.2002 36.0031Z" fill="#141414"/>
</svg>
