<svg width="156" height="429" viewBox="0 0 156 429" fill="none" xmlns="http://www.w3.org/2000/svg">
<path fill-rule="evenodd" clip-rule="evenodd" d="M152.877 419.587C153.932 414.679 149.105 413.02 146.061 411.928C143.881 410.516 135.804 405.624 129.554 399.586C124.44 394.645 120.958 388.312 119.509 387.708C118.514 387.132 117.966 386.63 117.862 386.202C116.955 382.44 117.712 378.933 117.862 376.652C120.772 375.889 123.103 374.937 124.847 373.606C125.355 373.775 126.118 373.992 126.345 373.249C127.921 362.747 128.601 352.37 129.883 341.86C134.736 301.83 135.284 255.066 126.934 218.505C126.847 216.692 127.005 215.056 127.167 213.499C128.296 213.377 128.978 212.285 129.9 211.633C131.331 210.497 133.025 209.624 132.955 207.639C133.295 207.382 133.256 207.237 133.088 206.91C134.179 202.222 129.311 197.282 127.935 193.417C130.437 168.967 127.032 145.863 128.932 121.407C131.331 120.404 129.718 114.136 129.554 111.55C128.225 94.8941 119.557 78.426 103.947 72.9847C103.055 72.804 101.713 71.7852 100.975 72.4693C99.548 71.9046 97.6494 73.0179 96.545 71.7362L96.5561 71.7278C95.6262 70.4398 95.2093 68.8024 94.9036 67.2542C94.9548 67.6904 95.0401 68.1231 95.1453 68.5461C92.4543 60.9705 91.7763 58.9449 83.1133 58.5882C79.2109 58.5361 74.0668 58.6531 71.7914 62.3707C70.8591 64.0989 71.1439 66.0833 70.5652 67.9024C69.503 71.2406 64.9178 69.6275 62.5105 71.3609C43.2444 77.5333 27.4414 90.132 22.2471 110.354C21.1851 112.791 19.9807 115.217 19.0929 117.732C18.9555 118.106 18.5775 119.369 19.4853 119.951L19.9243 120.232C14.1415 147.23 13.7578 169.979 33.1858 187.978C34.6437 195.711 30.8932 206.273 32.3349 213.782C31.5134 214.946 32.5551 215.884 33.6053 215.959C33.7066 216.015 34.1158 216.194 34.2274 216.245C32.556 239.813 39.5732 271.577 42.6664 284.113C43.0874 291.64 40.5155 297.823 35.2247 301.925C29.379 305.522 17.8222 321.764 19.9647 338.802C17.4608 339.293 14.9752 339.562 12.5731 340.502C2.06255 338.649 2.16679 358.888 1.49708 366.004C0.362843 377.92 -0.342117 395.19 10.9902 402.817C13.9756 404.98 20.029 407.513 23.131 404.05C24.1475 402.831 24.402 401.652 24.0021 400.407C29.1244 393.178 27.744 383.723 28.2145 375.244C29.6999 375.155 31.2539 375.851 32.6907 375.597C34.1654 374.299 28.7855 374.653 28.2276 374.577C28.2847 373.269 28.39 371.893 28.5259 370.574C29.3697 370.743 30.4507 371.148 31.2622 371.179C31.7425 371.296 32.0819 370.635 31.792 370.293C31.1587 369.689 29.544 369.783 28.6354 369.697C28.7888 368.594 28.9765 367.434 29.185 366.366C30.2965 366.326 31.4444 367.034 32.4969 366.889C31.7003 366.358 30.205 366.52 29.234 366.169C29.8655 362.732 31.1521 359.469 32.3483 356.255C35.2833 357.464 37.8153 357.512 40.6806 357.149C41.8527 357.329 42.4241 357.09 42.6139 355.625L42.539 355.533C44.81 341.959 52.1383 329.018 65.7505 314.343C68.4393 311.337 71.4777 307.798 73.5021 303.842C77.57 295.607 78.2648 286.521 81.3992 277.969C84.3255 269.374 88.3268 261.151 92.0837 253.003C92.6346 257.179 93.3747 261.463 94.144 265.558C97.5299 280.069 97.2017 295.551 94.7099 310.142C91.0231 330.578 92.8002 351.111 91.9802 371.691C91.9914 372.878 92.1387 373.957 91.9644 375.193C91.9413 375.288 91.9863 375.4 92.0991 375.397L92.312 375.403C94.084 376.699 96.5312 376.933 98.6134 377.637C99.4879 378.328 99.2416 379.423 99.3217 380.277C99.5504 383.958 99.8429 387.654 99.4799 391.448C97.8732 394.523 95.8779 393.888 95.4697 398.223C95.1125 403.172 94.4804 408.434 96.8932 412.841L95.9803 412.998C94.6256 415.838 95.4526 417.681 98.6367 418.882C114.356 425.039 136.474 430.628 152.877 425.981C153.175 426.276 153.609 425.97 153.948 425.506C154.274 425.06 154.512 424.468 154.459 424.125C154.178 422.618 154.564 419.866 152.877 419.587Z" fill="#EEEEEE"/>
<path fill-rule="evenodd" clip-rule="evenodd" d="M124.793 426.092C121.969 425.583 105.744 421.897 96.4448 417.102C94.5455 416.123 95.0129 413.809 95.6318 412.307C95.9153 411.619 96.5861 411.101 96.4448 410.96C93.4714 407.99 95.6948 400.172 95.6948 398.674C95.6948 396.447 99.3086 393.432 98.6947 392.232C97.9859 390.846 98.8573 395.586 100.645 398.225C102.202 400.525 104.647 400.703 104.89 400.602L104.933 400.583L104.965 400.567C105.637 400.199 115.792 385.586 119.993 387.737C121.971 388.75 123.033 393.226 125.243 395.079C130.2 399.233 132.593 405.866 151.042 414.405C153.016 415.32 153.034 417.275 152.631 418.804C152.483 419.368 154.492 419.35 154.192 419.649C153.429 420.411 155.544 424.785 153.892 425.492C147.392 428.275 130.515 427.122 124.793 426.092ZM19.3522 339.045C20.0629 339.934 20.4119 340.583 20.399 340.993C20.2399 346.057 19.0341 349.787 18.9964 352.276L18.9941 352.445L18.9983 352.506C19.0712 353.516 20.6157 357.396 23.9988 358.223C25.2726 358.534 27.7725 357.984 31.4984 356.574C29.3698 362.448 28.1199 368.041 27.7486 373.354C27.3112 379.614 27.6642 386.713 26.8486 392.232C26.4034 395.245 24.7912 398.597 22.9488 400.922C22.4973 401.491 24.4601 402.569 23.9988 403.019C23.1348 403.861 20.9989 406.765 14.3993 404.517C12.4783 403.863 6.88894 400.228 3.7499 393.281C1.45692 388.206 1.24118 380.812 0.900057 374.253C0.523063 367.005 1.92391 355.693 3.7499 349.533C5.7804 342.682 8.30497 341.344 8.82811 340.965C8.95034 340.876 12.7506 340.126 13.1165 340.085L13.1804 340.079L13.2308 340.074L13.2586 340.063C14.7506 339.486 16.4564 339.208 18.6996 339.08L18.8376 339.072L19.3522 339.045Z" fill="white"/>
<path fill-rule="evenodd" clip-rule="evenodd" d="M153.551 424.517C139.426 430.852 113.777 422.858 99.8988 418.233C96.1566 416.884 94.91 416.62 95.9585 412.311C97.9204 416.092 102.14 417.006 106.182 417.764C119.875 420.882 133.834 426.639 148.478 423.83C150.628 423.492 152.754 422.329 153.38 420.184C153.765 421.093 153.527 422.325 153.681 423.324C153.71 423.723 153.719 424.154 153.551 424.517ZM96.4234 400.951C96.6784 398.411 97.0864 395.728 98.5338 393.484C98.3763 397.114 100.559 403.283 105.34 401.228C106.695 400.511 107.454 399.067 108.325 397.908C111.222 394.093 114.935 390.781 119.131 388.374C121.465 388.775 122.468 393.038 123.972 394.822C122.296 395.569 119.257 397.27 118.949 399.029C121.043 398.325 122.97 397.015 125.167 396.555C125.87 397.524 126.615 398.465 127.398 399.373C126.375 399.823 122.251 401.906 122.278 402.945C124.508 402.584 126.669 401.493 128.912 401.045C129.909 402.033 130.817 403.096 131.809 404.088C130.31 404.705 128.726 405.394 127.907 406.832C127.868 406.897 127.964 406.97 128.016 406.907C129.14 405.554 131.073 405.305 132.749 405.001C135.319 407.419 138.198 409.552 141.419 411.148C144.643 412.908 149.542 413.311 150.824 417.13C151.85 420.948 148.651 421.356 145.699 421.626C142.712 422.05 139.705 422.114 136.738 421.866C127.464 421.48 118.697 418.753 109.933 416.371C99.2179 414.4 95.741 412.805 96.4234 400.951ZM116.878 387.151C112.773 390.183 108.765 393.563 105.913 397.793C104.027 401.234 101.516 399.139 100.892 396.382C100.386 390.227 100.821 384.911 100.229 378.719C105.906 379.492 111.738 379.016 117.283 377.648C116.615 380.412 116.309 381.462 116.288 384.298C116.324 385.232 116.311 386.373 116.878 387.151ZM96.3861 207.011C95.8401 207.21 95.6072 206.341 96.1468 206.145C96.5175 206.009 96.8922 205.889 97.2686 205.775C97.3154 205.674 97.3994 205.588 97.529 205.54C101.948 203.932 106.884 204.089 111.5 204.473C113.981 204.68 116.456 204.958 118.908 205.394C121.255 205.811 123.583 206.324 125.931 206.733C126.41 206.794 126.89 206.851 127.369 206.905C127.939 206.969 127.943 207.869 127.369 207.804C127.263 207.792 127.158 207.778 127.052 207.766C126.982 207.791 126.904 207.802 126.817 207.788C126.452 207.73 126.087 207.669 125.723 207.606C124.12 207.401 122.522 207.165 120.923 206.931C116.719 206.315 112.501 205.701 108.249 205.541C104.253 205.391 100.172 205.631 96.3861 207.011ZM126.657 121.658C125.681 135.106 125.933 147.118 126.143 160.587C126.264 169.647 126.321 178.71 126.006 187.766C118.022 167.154 120.466 144.787 119.332 123.121C121.691 122.336 124.226 121.993 126.657 121.658ZM85.9047 221.088C86.6515 222.513 87.9055 223.659 89.392 224.375C89.2088 224.735 89.1458 225.139 89.1263 225.518C86.449 226.065 87.2019 227.334 85.3932 227.939C84.2096 228.266 83.0712 228.405 82.0482 229.121C78.5669 232.361 77.703 232.122 73.9667 229.273C74.0178 229.015 68.9331 224.054 67.3582 221.281C66.0458 218.968 64.6717 216.638 62.6603 214.849C52.8103 204.775 42.3169 195.268 32.7819 184.915C13.6732 165.895 17.3193 144.329 21.7082 120.571C28.7922 121.416 35.9153 123.114 42.2946 126.23C40.0447 136.716 39.9005 146.221 38.9316 156.861C38.6391 158.177 38.9691 160.71 40.8351 160.126C57.9866 173.728 59.9799 201.68 82.4877 209.763C91.6612 213.488 87.7899 216.511 90.8212 223.544C89.1533 223.238 87.6654 221.842 86.9484 220.505C86.5931 219.841 85.558 220.426 85.9047 221.088ZM43.5655 212.637C43.0135 212.701 42.46 212.749 41.9061 212.794C41.8419 212.846 41.7623 212.883 41.6648 212.896C40.8017 213.003 39.9217 213.144 39.0497 213.335C37.7558 213.793 36.4483 214.211 35.1469 214.647C35.0329 214.703 34.9195 214.76 34.8074 214.819C34.7 214.876 34.5961 214.885 34.5022 214.864C34.4643 214.877 34.426 214.889 34.3881 214.902C34.3783 214.906 34.3684 214.909 34.3588 214.912C34.3243 214.911 34.2897 214.91 34.2544 214.909C34.2033 214.906 34.1152 214.902 34.011 214.896C34.0087 214.856 34.0095 214.817 34.0083 214.778C33.641 214.788 33.3117 214.33 33.6575 214.027C34.9247 212.917 36.6273 212.511 38.2545 212.266C40.0161 212 41.7978 211.944 43.5655 211.738C44.1405 211.671 44.1338 212.57 43.5655 212.637ZM27.3823 365.424C25.8045 365.303 19.0562 365.071 18.2464 366.128C19.1584 366.513 20.4121 366.301 21.3931 366.344C23.2981 366.422 25.1985 366.59 27.0839 366.857C26.9428 367.591 26.8153 368.323 26.7104 369.059C24.8086 369.24 21.1051 369.323 19.8978 370.652C22.0516 370.995 24.2939 370.686 26.4553 371.114C26.3503 372.121 26.2738 373.13 26.217 374.138C25.3559 374.229 20.2923 375.067 20.2968 375.862C22.1925 376.114 24.2009 375.783 26.133 375.97C25.7144 382.012 27.1334 400.259 18.8657 401.375C11.6376 400.995 8.46681 389.294 7.48451 383.68C5.30648 370.601 5.68011 356.655 9.99687 344.048C11.5386 340.542 15.7356 339.934 19.2844 339.752C19.4192 340.346 19.5527 340.928 19.7027 341.516C18.1638 345.001 17.6734 348.924 17.6313 352.695C17.9568 358.116 24.6524 362.146 29.5151 358.565C28.6062 360.783 27.9044 363.09 27.3823 365.424ZM17.8174 404.418C3.50058 401.344 1.15171 384.783 2.13581 372.605C2.93811 364.128 1.97381 346.256 9.80773 341.276C-0.316709 350.508 0.562399 413.358 22.9995 402.388C22.44 404.159 19.5632 404.67 17.8174 404.418ZM20.6223 345.329C20.6478 345.11 20.6761 344.893 20.7061 344.674C22.2945 348.984 25.0154 353.081 29.0668 355.577C27.5158 357.509 24.4949 358.085 22.4565 356.502C18.9017 353.84 20.3838 349.023 20.6223 345.329ZM69.4234 69.9663C69.3951 70.0157 69.3649 70.0651 69.3349 70.1131C69.1369 70.1266 68.9374 70.1445 68.7349 70.167C68.9646 70.0981 69.1941 70.0337 69.4234 69.9663ZM154.941 421.893C154.902 420.821 154.887 419.436 153.63 419.056C154.2 414.435 150.36 411.805 146.329 410.525C142.891 408.424 138.993 406.957 135.834 404.424C137.301 404.149 138.768 403.817 140.071 403.179C141.055 402.698 140.581 401.097 139.515 401.246C137.626 401.494 135.93 402.453 134.155 403.12C133.147 402.293 132.171 401.429 131.249 400.515C132.397 400.293 133.858 400.375 134.527 399.236C134.736 398.88 134.643 398.51 134.391 398.235C133.227 397.058 130.92 398.233 129.474 398.576C128.78 397.777 128.109 396.961 127.451 396.136C128.543 396.035 131.384 396.235 130.827 394.434C129.761 393.026 127.467 393.871 125.925 394.161C123.969 391.759 123.339 388.073 120.283 386.751C120.173 386.169 119.411 386.213 118.903 386.386C118.154 382.817 118.211 381.003 118.43 377.344C120.7 376.716 122.951 375.892 124.838 374.541C125.705 374.796 126.756 374.502 126.936 373.485C128.505 363.066 129.203 352.519 130.479 342.063C135.133 303.557 136.147 256.558 127.532 218.517C127.464 217.076 127.566 215.633 127.712 214.202C128.739 213.928 129.351 212.926 130.202 212.346C131.782 211.059 133.391 210.338 133.536 208.092C133.855 207.788 133.893 207.328 133.718 206.93C134.127 204.624 133.524 202.335 132.295 200.342C130.949 198.072 129.677 195.782 128.553 193.399C131.01 169.389 127.677 146.119 129.5 121.989C131.836 120.753 130.37 113.885 130.152 111.596C128.787 96.561 121.76 79.9608 106.819 73.7073C105.771 72.8233 104.307 72.5237 103.026 72.0368C102.161 71.6113 100.752 71.2427 100.16 72.233C99.5314 71.9409 97.5079 71.7177 96.8149 71.2113C96.6859 71.1169 96.6034 71.0135 96.5839 70.8981C96.5329 70.8996 96.4729 70.8892 96.4084 70.8757C95.7696 69.9737 95.1605 63.6917 94.373 64.1397C93.5136 66.2971 94.109 68.7347 94.9311 70.9131C95.498 72.8398 96.2751 77.7959 99.2868 76.5284C99.8059 76.2707 99.4847 75.601 99.0198 75.5471C97.592 75.1396 97.2739 73.0436 96.7219 71.815C97.3759 72.3574 100.355 73.1709 100.68 73.3432C107.142 88.1575 68.0735 87.38 65.0018 77.1667C62.8118 73.6384 64.7018 71.7267 68.6061 71.1603C65.7366 74.3455 69.3696 75.0527 70.7508 71.9289C72.0723 69.6921 72.6737 66.9743 72.2222 64.4004C72.4547 63.497 72.6514 62.2894 71.2983 62.5321C71.252 62.4123 71.1783 62.5067 71.207 62.5921C70.7133 63.3771 71.057 64.5053 70.8815 65.4117C70.733 66.8949 70.3114 68.3482 69.5961 69.6606C68.2686 69.9138 66.947 70.185 65.6318 70.4816C64.8427 68.8801 59.7249 72.0742 58.351 72.4503C40.0985 77.8364 26.2183 92.1803 21.3737 110.273C20.2923 112.682 19.1252 115.103 18.2402 117.587C17.8443 118.663 17.8443 119.998 18.9317 120.694C13.6325 144.976 12.3396 170.275 32.3591 188.487C32.8134 190.459 32.5106 192.55 32.4971 194.558C32.6282 198.128 30.2738 208.461 31.3969 213.786C31.275 214.019 31.1887 214.269 31.155 214.535C30.9978 215.773 32.0059 216.57 33.1181 216.773C33.1518 216.779 33.1866 216.785 33.221 216.791C33.2462 216.803 33.2706 216.817 33.2966 216.829C31.969 237.129 36.9474 264.752 41.7726 284.337C42.1294 291.068 40.0972 297.191 34.6269 301.439C24.2264 309.205 19.8452 322.169 18.6287 334.524C18.4563 335.79 18.6257 337.078 18.9109 338.322C16.6564 338.741 14.5461 339.014 12.3576 339.839C0.287756 337.529 1.14886 363.432 0.224913 371.117C-0.498196 382.48 -0.0467177 396.1 10.4062 403.54C13.9205 406.039 20.1242 408.439 23.5486 404.655C24.5174 403.497 25.0455 402.142 24.6644 400.662C29.5736 393.481 28.4142 384.303 28.7817 376.132C30.0671 376.177 31.468 376.749 32.7341 376.435C33.7091 376.177 33.8336 374.927 33.0086 374.43C31.8175 373.756 30.1991 374.012 28.8672 373.967C28.9078 373.185 28.9663 372.403 29.0413 371.621C30.3056 371.929 32.1175 372.671 32.494 370.906C32.6456 369.299 30.6131 369.176 29.3473 369.107C29.4358 368.5 29.5348 367.896 29.6473 367.294C30.6162 367.391 31.639 368.009 32.5916 367.714C33.1314 367.501 33.3189 366.955 32.9245 366.513C32.1912 365.796 30.9371 365.94 29.9668 365.716C30.5561 362.832 31.6212 360.074 32.6471 357.316C34.504 357.96 36.5153 358.386 38.4968 358.224C39.5241 358.008 40.6462 357.947 41.6841 358.086C42.8389 357.78 43.1059 356.547 43.2575 355.541C43.235 355.505 43.2124 355.47 43.1869 355.439C45.8552 339.917 55.4279 326.508 66.1611 314.955C69.1174 311.65 72.0168 308.214 74.0252 304.288C78.1051 296.084 78.8369 286.853 81.9582 278.33C84.5876 270.59 88.1019 263.168 91.5472 255.736C92.9286 265.525 95.5085 275.154 95.8041 285.081C96.2541 297.641 93.4836 310.017 92.3017 322.476C90.1763 338.874 92.1068 355.374 91.0809 371.784C91.0884 372.945 91.2384 374.039 91.0732 375.2C90.9819 375.843 91.4439 376.246 91.9298 376.259C93.7146 377.429 95.9571 377.844 98.0089 378.345C98.5773 378.779 98.3315 379.849 98.432 380.504C98.6523 384.182 98.9435 386.958 98.5848 390.666C96.5779 393.63 95.1322 393.156 94.574 397.662C94.2667 402.365 93.5901 407.451 95.648 411.721C94.727 411.93 94.3776 414.738 94.5155 415.481C94.7495 417.576 96.5989 418.239 98.3868 418.962C111.453 423.852 139.215 431.902 152.64 426.366C153.602 426.909 154.674 425.844 154.985 424.986C155.396 423.942 155.018 422.93 154.941 421.893Z" fill="#333333"/>
<path fill-rule="evenodd" clip-rule="evenodd" d="M112.644 39.7622C112.584 36.4024 112.519 32.9753 112.02 29.6481C111.532 26.3954 110.19 23.4551 107.885 21.0931C102.987 16.0758 95.8883 14.8503 89.2804 13.7272L77.9828 11.807C74.5361 11.2214 70.859 10.2852 67.3767 11.1158C65.6607 11.5251 64.2035 12.4759 62.8716 13.601C61.5879 14.6853 60.2076 15.8498 59.3378 17.3086C58.4664 18.7696 58.1666 20.4774 57.8834 22.1298C57.5638 23.9927 57.3156 25.8701 57.1393 27.7521C56.7859 31.5226 56.7377 35.3215 56.994 39.0998C57.1182 40.9324 57.3158 42.7598 57.568 44.579C57.6931 45.4812 57.8345 46.381 57.9942 47.2778C58.0413 47.5422 58.0771 47.835 58.1253 48.1307C57.7689 49.1455 57.5664 50.1964 57.5827 51.2428C57.6308 54.3252 60.2294 56.2658 62.849 57.3077C64.368 57.9119 65.956 58.3224 67.4484 58.9973C69.0184 59.7071 70.0871 60.8579 71.1605 62.1707C73.2078 64.6745 75.5182 66.9248 78.1563 68.8023C83.7494 72.7829 90.8337 74.6656 97.6201 73.2366C99.2484 72.8937 100.891 72.3613 102.355 71.5591C103.9 70.7121 105.062 69.4848 106.038 68.0338C107.85 65.34 109.149 62.3066 110.132 59.2198C111.135 56.0711 111.846 52.9167 112.234 49.6335C112.621 46.3609 112.703 43.0551 112.644 39.7622Z" fill="#EEEEEE"/>
<path fill-rule="evenodd" clip-rule="evenodd" d="M76.5584 0.114501C81.2274 -0.52865 87.6718 1.5617 89.997 5.77657C101.098 3.15572 115.1 3.06988 124.25 11.7946C133.797 22.144 121.805 35.7898 113.853 38.8664C114.432 41.6839 113.53 59.7343 107.142 67.7857C102.073 74.6077 90.2687 77.756 84.8063 69.6078L84.7637 69.5405C84.1785 68.5995 84.6825 68.6297 85.2833 69.3297C90.6321 74.0402 97.9047 74.1206 103.509 69.1495C114.012 60.0633 112.929 37.7844 107.931 24.8958C93.6997 23.3306 78.4622 27.6501 68.6326 38.3782L69.2973 42.3854C69.4106 43.0681 69.5392 43.7502 69.6374 44.4353C69.7002 44.8742 69.7072 45.3108 69.4035 45.6662C68.4008 46.8392 66.7107 45.0765 65.3202 44.3754C64.9097 44.3175 64.4984 44.2952 64.0951 44.3237C57.4142 45.1854 58.7305 58.1638 66.0733 55.8889C66.6902 55.504 67.2203 55.6214 67.4596 56.1799C69.2098 57.7853 70.3638 60.6486 73.2716 63.4064C74.2976 64.4408 75.2313 65.3063 76.3853 66.1361C77.0631 66.8226 79.1085 67.5225 78.4601 68.6972C77.234 71.3702 70.0036 62.9739 68.7252 60.6519C64.72 62.2357 60.2813 61.6977 56.1306 61.3106C34.2335 60.1705 37.1567 37.0558 55.1053 22.4622C58.4839 19.9714 62.2115 17.9395 66.0863 16.3759C66.6153 16.1624 66.3841 15.2926 65.8477 15.5091C63.2838 16.5438 60.7844 17.7755 58.4019 19.2009L58.3983 18.3487C58.3948 16.9133 58.4173 15.4189 58.6662 14.1074C58.7907 13.1986 59 12.228 59.3222 11.4978C59.7206 9.25914 65.9612 1.57489 76.5584 0.114501ZM63.8029 47.3033C64.141 46.9816 64.7721 47.3651 65.0731 47.3556C65.8428 47.461 66.5741 47.7866 67.1444 48.1884C67.5209 48.3996 67.7848 48.598 68.0053 48.7804L68.0113 48.7788C68.0096 48.7788 68.0076 48.7804 68.0058 48.7809L68.0265 48.7949C68.3476 49.0234 69.523 50.3102 68.7804 49.9641C68.725 49.892 68.6683 49.8228 68.6112 49.755C68.6051 49.7643 68.5965 49.7734 68.5864 49.7822L68.6281 49.8442C69.2592 50.795 68.1695 49.7933 68.0019 49.5272C67.9939 49.5337 67.985 49.538 67.9761 49.5427L68.1945 49.8088C68.225 49.8466 68.249 49.8767 68.2689 49.9022L68.3149 49.9467C69.0447 50.6651 69.0675 51.3115 68.2197 50.2495C68.2531 50.2995 68.2798 50.3526 68.2836 50.3996L68.3338 50.4638C68.9995 51.3228 68.458 51.0177 68.1273 50.6508L68.0996 50.6193L68.1052 50.6278C68.413 51.1026 67.8024 50.7695 67.6945 50.5155L67.69 50.504C67.5724 50.408 67.5 50.3002 67.4752 50.2729L67.4706 50.2684C66.8983 49.6811 66.0686 49.1842 65.3638 48.9584C65.2616 48.9389 65.1583 48.9234 65.0538 48.9123C64.63 48.8176 64.2016 48.7527 63.7686 48.7177C63.7156 48.7114 63.6619 48.6724 63.6218 48.6221C62.9672 48.6 63.1693 48.3312 63.4409 48.2813L63.4456 48.2805L63.3917 48.276C62.9716 48.2349 62.6847 48.0839 63.1095 47.9913L63.1633 47.9806C63.1567 47.9702 63.1509 47.9599 63.1452 47.9496C62.7814 47.9096 63.0188 47.5554 63.2208 47.6411C63.1358 47.3629 63.5242 47.5018 63.5726 47.4604C63.6096 47.4194 63.6555 47.3831 63.682 47.3812C63.799 47.2985 63.7423 47.306 63.8029 47.3033ZM66.029 42.799L65.9437 42.8489C65.8748 42.8892 65.8038 42.916 65.7326 42.9318C65.8332 42.9746 65.9325 43.0209 66.0308 43.0703C66.0292 43.0099 66.0281 42.9495 66.0281 42.8893L66.029 42.799Z" fill="#333333"/>
<path fill-rule="evenodd" clip-rule="evenodd" d="M102.443 62.2223C101.047 60.9793 99.4808 58.4802 97.4741 60.4576C96.9777 61.0163 96.7767 62.2688 96.0178 62.5145C95.0098 62.8411 94.0109 61.7759 93.6674 60.9578C92.262 56.4127 98.0718 55.166 101.381 55.9003C102.998 56.5636 104.189 59.2334 104.261 60.6267C104.308 61.5631 103.514 62.94 102.443 62.2223ZM112.982 55.2167C112.968 55.1563 112.949 55.1018 112.926 55.0522C112.308 54.8189 111.82 55.0568 111.517 55.5012C111.527 55.6116 111.56 55.7235 111.581 55.8331C111.348 56.3236 111.138 56.9305 110.822 57.3543C110.76 57.3591 110.695 57.3525 110.633 57.3346C105.396 57.8808 107.953 52.408 102.641 51.0487C98.5357 50.3721 91.115 51.1471 89.1782 55.4157C87.6506 62.2337 79.8836 57.4829 77.3335 53.9371C74.6125 50.7101 72.8531 46.7668 71.1567 42.9403C70.7982 42.1306 69.6794 42.7096 69.801 43.4866C68.233 46.6285 68.2852 50.4025 67.8969 53.8445C67.2363 60.7115 66.5927 70.3417 72.9804 74.5348C81.303 83.9311 102.086 87.247 111.685 78.6134C115.008 71.4774 114.598 62.7717 112.982 55.2167Z" fill="#333333"/>
<path fill-rule="evenodd" clip-rule="evenodd" d="M92.5674 53.2304C93.4065 51.8518 95.1949 55.229 95.3849 55.8097C95.5532 56.3241 95.6643 56.8511 95.7208 57.3842C96.3713 57.5298 97.0468 57.5301 97.7134 57.4025C98.704 57.2126 99.3096 56.6806 100.171 56.2239C100.765 55.9082 101.515 56.2784 101.824 56.8018C102.188 57.418 101.956 58.0575 101.478 58.5168C100.57 59.3879 98.7851 59.588 97.6008 59.3566C96.9222 59.2242 96.3003 58.97 95.7511 58.6006C95.7475 58.6695 95.745 58.7385 95.7396 58.8073L95.7291 58.9267C95.6381 59.8927 95.3723 61.1075 94.6211 61.7361C93.389 62.7672 91.8685 60.7842 93.0656 59.7542L93.1028 59.7233C93.8469 59.1227 94.0092 57.5114 93.9692 56.6239C93.9429 56.0446 93.8372 55.4579 93.6541 54.9062L93.6165 54.7964C93.5614 54.6405 92.9604 53.1622 92.7432 53.3504L92.7329 53.3611C92.6433 53.4679 92.4986 53.3435 92.5674 53.2304ZM99.2667 45.4509C100.399 46.1386 102.125 47.7422 100.907 49.447C99.4724 50.9503 97.4074 49.2267 96.3898 48.4472C95.4463 47.8431 94.3861 49.3968 95.2615 50.1022C102.615 55.54 105.599 45.6307 99.8395 44.6424C99.2054 44.5335 98.9699 45.2382 99.2667 45.4509ZM87.172 39.0945C88.2789 38.8984 89.4129 39.1733 90.3289 39.8202L90.3983 39.8701C91.2808 40.5148 92.2681 41.6467 91.7617 42.7579C91.5585 43.2041 90.9498 43.274 90.5636 43.0718C89.9206 42.735 89.8041 41.9063 89.2303 41.4477C88.7598 41.0718 88.1262 40.8438 87.5203 40.8988C86.0967 41.0279 85.2211 42.4304 84.7789 43.639C84.7223 43.7936 84.4951 43.8537 84.4063 43.6877C83.3637 41.7412 85.2092 39.4424 87.172 39.0945ZM104.903 38.3599C107.023 38.1854 109.505 40.3811 108.947 42.6168C108.679 43.6895 107.086 43.6588 106.803 42.6168C106.647 42.0434 106.662 41.5361 106.249 41.06C105.908 40.6669 105.424 40.4385 104.903 40.4736C104.328 40.5122 103.799 40.7989 103.396 41.2017C103.033 41.5655 102.816 42.0978 102.439 42.4198C102.346 42.4989 102.222 42.504 102.131 42.4198C101.483 41.823 101.872 40.5807 102.283 39.9578C102.871 39.0663 103.828 38.4485 104.903 38.3599ZM83.1341 35.1294C84.4944 33.9267 86.9661 32.7651 88.8003 33.357C89.8549 33.6973 90.3146 35.3946 89.1374 35.9326C87.7741 36.5556 86.2023 36.3021 84.8147 36.9478C84.232 37.2191 83.684 37.5582 83.2782 38.0554C82.9586 38.4474 82.6334 38.9631 82.1711 39.189C82.0496 39.2485 81.8851 39.25 81.7878 39.1397C80.7744 37.9948 82.2493 35.9117 83.1341 35.1294ZM102.565 33.2973C103.405 33.0617 104.338 33.0665 105.192 33.2145C106.046 33.3625 106.913 33.7159 107.61 34.2315L107.69 34.2918C108.451 34.8646 109.359 35.6979 109.311 36.7125C109.27 37.5598 108.378 38.1328 107.607 37.6888C106.979 37.3266 106.684 36.6012 106.152 36.1182C105.714 35.7195 105.198 35.4052 104.648 35.1849C104.038 34.9403 103.426 34.8257 102.77 34.8147C102.266 34.8063 101.758 34.9717 101.263 35.0246C101.303 35.1082 100.912 35.0693 100.687 34.9951C100.521 34.9244 100.52 34.7145 100.578 34.5783C100.864 33.9037 101.903 33.4825 102.565 33.2973Z" fill="#333333"/>
<path fill-rule="evenodd" clip-rule="evenodd" d="M112.384 46.1572C111.007 47.8754 105.617 49.7827 102.748 47.7123C99.8791 45.6418 98.7454 44.1988 98.3619 41.6117C98.3211 41.3358 97.8217 41.1523 97.6106 41.3482C96.4285 42.4449 95.6633 43.8417 94.9052 45.2422C94.0502 46.8216 93.208 48.4108 91.6542 49.48C88.9021 50.9535 83.9233 51.1634 82.4524 50.5134C79.6346 49.2682 77.4057 46.6053 76.8988 42.9407C76.5551 41.8571 76.2327 41.2012 75.9316 40.9732C75.5035 40.6489 73.1407 40.3601 72.8819 40.3121C68.2172 39.4476 62.3177 38.8965 58.1631 41.938C57.6009 42.2775 55.6761 43.5529 55.6472 43.2393C55.6275 42.0109 57.0211 39.2306 60.1907 37.9076C64.1103 36.2716 69.9367 36.1759 73.3121 36.537C73.4818 36.5551 74.0605 36.4131 74.1014 36.3954C79.2152 34.1839 85.0992 34.7713 90.5709 35.7008C91.3549 35.8528 98.374 37.5888 101.166 36.537C105.782 34.6546 110.704 33.2909 115.689 33.8274C115.731 33.8319 116.36 37.6473 115.87 37.9076C115.479 38.1147 114.816 38.6455 114.58 38.936C114.369 39.1957 114.236 39.5185 114.248 39.9658C114.343 42.5531 113.604 44.6349 112.384 46.1572ZM93.404 43.8485C93.9894 43.0028 94.1741 41.1029 93.929 39.7169C93.8049 39.0151 93.564 38.4565 93.2617 38.1784C93.0607 37.9936 92.8314 37.9066 92.5813 37.9195C92.4442 37.9266 92.2956 37.9655 92.1384 38.0502C90.0096 36.9 87.4305 36.4858 84.9859 36.6049C83.0397 36.6046 81.6512 37.0634 80.7096 37.7776C79.5767 38.637 79.0662 39.8725 79.0367 41.2123C79.0016 42.8022 79.6555 44.5415 80.728 45.9177C81.7546 47.235 83.159 48.2115 84.6825 48.4368C86.412 48.7797 88.1744 48.448 89.7068 47.6364C91.2784 46.8041 92.606 45.4673 93.404 43.8485ZM110.47 44.7454C111.456 43.5811 112.112 42.0664 112.212 40.5655C112.303 39.1997 111.937 37.8468 110.924 36.7287C110.007 35.9418 108.385 35.9287 106.679 36.3669C104.473 36.9336 102.19 38.1998 101.43 39.0176C101.25 39.1115 101.084 39.2749 100.939 39.6255L100.938 39.7505C100.708 40.8122 100.844 41.8896 101.243 42.8835C101.676 43.9632 102.419 44.9433 103.325 45.6911C104.528 46.6811 105.784 46.9842 106.959 46.8243C108.291 46.6432 109.529 45.856 110.47 44.7454Z" fill="white"/>
<path fill-rule="evenodd" clip-rule="evenodd" d="M101.007 36.1164C105.682 34.2101 110.678 32.8361 115.737 33.3806C116.155 33.2216 116.675 33.3555 116.86 33.9464C118.662 39.4291 114.644 37.9044 114.698 39.954C115.119 51.4457 99.6555 53.4082 97.9168 41.6775L97.8849 41.6964C95.3833 44.0281 94.8564 47.8223 91.9095 49.8501C85.9649 54.1927 77.5381 50.752 76.4557 43.0213L76.4321 42.9167C76.0688 41.3389 75.6344 40.9478 73.8426 40.9555L73.5595 40.8993C68.9039 39.9831 62.7043 39.1598 58.4162 42.3107C57.4836 42.8524 57.4398 44.2451 56.6517 44.8503C55.7884 45.0178 55.2565 43.9806 55.198 43.2628C55.0612 36.1069 67.881 35.5921 73.6224 36.2062C73.732 36.0928 73.9661 36.1069 74.045 36.2481C79.2375 34.0026 85.0873 34.3133 90.6469 35.2577C94.0908 35.9236 97.4923 37.4406 101.007 36.1164ZM115.272 34.7017C112.467 34.5616 109.872 34.7149 107.119 35.3883C105.668 35.738 104.554 36.1801 103.165 36.7118C94.5021 40.5456 93.5029 33.731 74.0837 36.4023C74.335 37.4771 74.3812 38.5413 74.3947 39.5511C78.3597 39.3915 77.4262 43.1732 78.9117 45.8295L78.9574 45.9097C81.1224 49.7852 86.2311 51.593 90.3521 49.0223C93.7903 47.0207 94.1256 41.944 97.5487 39.9292C100.516 39.8127 99.3308 43.8129 100.946 45.457C103.219 48.4866 108.05 48.9101 110.9 46.0605C112.237 44.6894 112.948 42.9484 112.987 41.0781C113.062 39.8831 112.857 38.6688 113.761 37.8283C114.395 37.185 115.522 37.3997 115.651 36.4272C115.733 35.8522 115.494 35.2285 115.272 34.7017ZM84.7872 36.268C87.5736 36.1309 90.5218 36.6142 92.9144 37.9792C94.6853 36.5715 95.1192 42.1661 93.9438 43.7843C92.2502 47.2455 88.3074 49.5211 84.5109 48.7654C78.5884 47.9082 74.4618 36.2576 84.7872 36.268ZM92.7443 38.3544L92.5927 38.3322C90.026 37.9411 83.0371 36.1287 80.3416 38.9892C77.7256 43.7339 84.3623 51.7034 91.2687 45.3555C93.1908 43.4008 93.9358 41.0305 92.7443 38.3544ZM100.878 38.9608C102.207 37.3887 108.982 34.2044 111.343 36.2478C115.653 41.0722 108.818 50.8305 103.094 46.0762C101.187 44.4871 99.9325 41.9551 100.482 39.5033L100.482 39.4005C100.484 39.3632 100.491 39.3717 100.53 39.3253C100.601 39.14 100.728 39.0216 100.878 38.9608ZM111.283 41.8848C112.736 34.0107 106.662 37.0041 101.673 39.1058C101.941 39.3502 101.94 39.6838 101.863 39.958C101.337 45.8004 108.446 49.1112 111.283 41.8848ZM73.5216 36.5888C71.4407 37.2927 57.6773 36.0339 56.4059 42.4783C57.748 40.3063 60.5276 39.4444 63.0265 38.9767C66.4255 38.3404 69.8058 38.7088 73.1571 39.3784L73.2263 38.6856C73.3006 37.9507 73.379 37.2633 73.5216 36.5888Z" fill="#141414"/>
</svg>
