<svg width="338" height="333" viewBox="0 0 338 333" fill="none" xmlns="http://www.w3.org/2000/svg">
<path d="M333.118 205.647C339.663 224.071 338.209 241.162 328.754 256.919C319.3 272.677 307.543 286.131 293.482 297.283C279.422 308.434 263.664 315.222 246.21 317.646C228.755 320.07 212.271 322.01 196.756 323.464C181.241 324.919 164.877 327.343 147.665 330.737C130.453 334.131 114.211 331.828 98.9385 323.828C83.6659 315.828 67.7872 307.343 51.3025 298.374C34.8179 289.404 22.818 276.313 15.3029 259.101C7.7878 241.889 3.18179 224.071 1.48483 205.647C-0.212119 187.223 -0.454541 168.799 0.757569 150.375C1.96968 131.951 9.60597 116.315 23.6664 103.466C37.7269 90.6179 49.848 77.4059 60.0297 63.8303C70.2115 50.2546 82.8174 38.6184 97.8476 28.9215C112.878 19.2246 129.241 11.3459 146.938 5.28536C164.635 -0.775186 182.574 -1.62366 200.756 2.73993C218.937 7.10353 234.331 16.1943 246.937 30.0124C259.543 43.8305 271.543 56.5576 282.937 68.1939C294.331 79.8301 304.512 92.6785 313.482 106.739C322.451 120.799 326.33 136.193 325.118 152.92C323.906 169.647 326.573 187.223 333.118 205.647Z" fill="#E6E6E6"/>
</svg>
