<?xml version="1.0" encoding="UTF-8"?><svg xmlns="http://www.w3.org/2000/svg" viewBox="0 0 512 512"><defs><style>.d{fill:#fff;}.e{fill:#141414;}</style></defs><g id="a"/><g id="b"><g id="c"><g><rect class="d" x="0" y="0" width="512" height="512" rx="256" ry="256"/><path class="e" d="M418.42,190.32c-3.86-5.87-10.55-9.7-18.84-10.8-5.92-.78-11.03,.43-14.81,1.97,3.06-5.78,3.85-11.96,2.14-17.6-3.13-10.33-10.54-16.42-24.03-19.75-7.73-1.9-18.21-11.42-28.75-26.1-16.02-22.3-17.8-46.21-17.44-58.48l.2-6.76-3.21,5.95c-4.94,9.15-12.52,27.97-7.76,51.23,2.4,11.73,7.23,21.13,12.28,28.26-3.16-2.6-6.08-5.46-8.75-8.54-11.78-13.6-16.07-28.66-17.59-38.9l-1.32-8.86-1.84,8.77c-2.28,10.85-4.44,32.09,6.65,52.36,2.09,3.82,4.56,7.45,7.38,10.84-4.89-.28-12.89,.4-19.18,6.47-5.31,5.13-6.74,11.45-7.12,14.77l-.63,5.5,3.47-4.32c.66-.82,6.73-7.99,16.22-7.35,3.67,.25,6.65,1.59,8.83,3.01-10.35,.36-19.62,5.92-23.95,14.72-5,10.15-1.23,20.14,.04,22.96l2.03,4.49,1-4.82c2.36-11.34,10.09-20.24,19.68-22.68,13.1-3.32,24.35,7.1,25.59,8.3,7.98,7.72,12.32,20.82,11.91,35.96-.53,19.84-8.77,38.58-22.04,50.11-12.93,11.24-25.06,13.69-32.95,13.76-.13,0-.26,0-.38,0-12.38,0-20.31-5.5-30.32-12.45-10.1-7.01-21.54-14.95-40.67-19.27-10-2.26-20.74-3.12-31.07-2.47-19.58,1.22-39.09,7.95-56.42,19.46l-8.78,5.83,10.12-2.96c18.96-5.54,37.52-6.66,55.16-3.33,7.04,1.33,17.07,4.01,24.89,9.25,6.08,4.07,11.39,9.39,15.62,15.61-33.1-21.92-74.13-23.22-102.08-2.56-23.38,17.29-29.47,44.37-31,55.21l-.87,6.15,3.74-4.96c6.22-8.27,23.93-28.23,53.85-35.04,20.32-4.63,37.98-1.38,49.57,2.36-47.85,2.59-86.41,21.23-91.21,44.81-1.84,9.01,1.21,19.99,8.58,30.91,8.27,12.26,21.29,23.83,37.68,33.46,18.52,10.89,40,18.65,63.86,23.06l7.21,1.33-6-4.22c-.66-.47-16.38-11.59-30.4-26.47-12.09-12.84-25.54-31.41-20.97-46.97,4.94-16.78,28.91-23.69,48.16-26.54,25.41-3.76,53.61-2.23,71.52,.45,30.71,4.6,59.39,15.61,59.02,22.67-.12,2.28-3.62,6.84-25.73,11.73l-6.94,1.53,6.92,1.59c22.44,5.17,40.92,1.41,44.94-9.14,.73-1.92,1.43-7.1-6.46-15.65,7.48-1.11,14.72,.23,19.82,3.74,2.95,2.04,4.84,4.62,5.18,7.08,.65,4.73-4.33,11.07-11.84,15.06l-4.24,2.25,4.74,.75c.57,.09,13.97,2.08,23.98-6.79,2.88-2.55,9.35-12.46,1.61-24.14-3.7-5.59-12.1-13.59-31.11-20.99,5.68-1.67,10.85-4.24,15.43-7.69,12.98-9.78,16.94-23.4,19.31-31.53,10.09-34.68-7.46-76.76-14.67-91.8,1.37-.2,2.71-.51,4.01-.94,6.71-2.19,11.07-6.91,13.59-10.58l11.54,20.81,1.48-2c7.26-9.79,8.24-22.28,2.44-31.09Z"/></g></g></g></svg>